Coordinates
version=1
nRows=10
nColumns=38
inDegrees=no

Units are S.I. units (second, meters, Newtons, ...)
If the header above contains a line with 'inDegrees', this indicates whether rotational values are in degrees (yes) or radians (no).

endheader
time	pelvis_tilt	pelvis_list	pelvis_rotation	pelvis_tx	pelvis_ty	pelvis_tz	hip_flexion_r	hip_adduction_r	hip_rotation_r	knee_angle_r	ankle_angle_r	subtalar_angle_r	mtp_angle_r	hip_flexion_l	hip_adduction_l	hip_rotation_l	knee_angle_l	ankle_angle_l	subtalar_angle_l	mtp_angle_l	lumbar_extension	lumbar_bending	lumbar_rotation	arm_flex_r	arm_add_r	arm_rot_r	elbow_flex_r	pro_sup_r	wrist_flex_r	wrist_dev_r	arm_flex_l	arm_add_l	arm_rot_l	elbow_flex_l	pro_sup_l	wrist_flex_l	wrist_dev_l
1.91667	-0.104843	0.0948509	-0.0915296	0.935093	0.956794	-0.340434	0.134113	0.0696155	0.231174	-0.688244	0.389907	-0.0319619	-0.00910766	0.848393	0.0539995	-0.0582797	-1.91358	0.139818	-0.0238156	-0.0487118	-0.127633	-0.0837743	0.000277171	-0.290979	-0.294046	0.0969153	1.75095	1.91055	0.018341	-0.00793094	-0.743511	-0.229989	-0.0190418	1.74289	2.12284	0.0669041	-0.0375241
1.925	-0.111414	0.114468	-0.0742615	0.937555	0.962627	-0.341437	0.0762928	0.0344895	0.204992	-0.62481	0.329819	-0.0319619	-0.00910766	0.875539	0.0819316	-0.0561214	-1.83463	0.152363	-0.0238156	-0.0487118	-0.112734	-0.106823	-0.00327519	-0.283752	-0.288524	0.103658	1.786	1.90833	0.018341	-0.00793094	-0.776019	-0.237819	-0.024029	1.7637	2.12553	0.0669041	-0.0375241
1.93333	-0.117731	0.1343	-0.0566702	0.940357	0.968756	-0.342612	0.0193051	1.05055e-05	0.17249	-0.561347	0.25567	-0.0319619	-0.00910766	0.895686	0.111564	-0.0541418	-1.748	0.163691	-0.0238156	-0.0487118	-0.0980824	-0.130018	-0.00663863	-0.281198	-0.284363	0.109837	1.82162	1.90681	0.018341	-0.00793094	-0.807454	-0.245254	-0.0287699	1.78517	2.12791	0.0669041	-0.0375241
1.94167	-0.123581	0.153537	-0.0393448	0.943368	0.97504	-0.343923	-0.0360365	-0.0325891	0.135139	-0.499976	0.170778	-0.0319619	-0.00910766	0.908942	0.142016	-0.0511513	-1.65432	0.173851	-0.0238156	-0.0487118	-0.0841979	-0.152536	-0.00912861	-0.282672	-0.281689	0.115433	1.85722	1.90557	0.018341	-0.00793094	-0.837045	-0.252344	-0.0330793	1.80639	2.12969	0.0669041	-0.0375241
1.95	-0.128844	0.171174	-0.0228269	0.946459	0.981325	-0.345321	-0.0889082	-0.0618999	0.0952517	-0.442781	0.0796128	-0.0319619	-0.00910766	0.91557	0.172078	-0.0458601	-1.55432	0.182907	-0.0238156	-0.0487118	-0.0714259	-0.173325	-0.0099796	-0.28771	-0.280403	0.120157	1.89234	1.90428	0.018341	-0.00793094	-0.864081	-0.259351	-0.0366692	1.82677	2.13078	0.0669041	-0.0375241
1.95833	-0.133506	0.186081	-0.00756392	0.949509	0.98744	-0.346733	-0.13847	-0.0864289	0.0558335	-0.391772	-0.0125977	-0.0319619	-0.00910766	0.916009	0.20028	-0.0370711	-1.44885	0.190946	-0.0238156	-0.0487118	-0.0599043	-0.19119	-0.0084667	-0.296003	-0.280241	0.123582	1.92658	1.90282	0.018341	-0.00793094	-0.887975	-0.266663	-0.0392385	1.84592	2.13136	0.0669041	-0.0375241
1.96667	-0.137649	0.197142	0.00611916	0.952412	0.993214	-0.348074	-0.183907	-0.104757	0.0202838	-0.348833	-0.100432	-0.0319619	-0.00910766	0.910851	0.225064	-0.0238631	-1.33896	0.198065	-0.0238156	-0.0487118	-0.0496034	-0.204954	-0.00406309	-0.307285	-0.280852	0.125306	1.95949	1.90136	0.018341	-0.00793094	-0.908324	-0.274659	-0.0405791	1.86369	2.13192	0.0669041	-0.0375241
1.975	-0.141369	0.203412	0.018019	0.955091	0.998488	-0.349247	-0.224481	-0.115727	-0.00804901	-0.31566	-0.178933	-0.0319619	-0.00910766	0.900815	0.244974	-0.00576545	-1.22592	0.204387	-0.0238156	-0.0487118	-0.0403871	-0.213638	0.00342592	-0.321203	-0.281895	0.12512	1.9905	1.90034	0.018341	-0.00793094	-0.924937	-0.283559	-0.0406685	1.88001	2.13317	0.0669041	-0.0375241
1.98333	-0.144756	0.204276	0.0280196	0.957502	1.00313	-0.350163	-0.259605	-0.118621	-0.0264134	-0.293709	-0.244237	-0.0319619	-0.00910766	0.886676	0.258852	0.0171277	-1.11127	0.210072	-0.0238156	-0.0487118	-0.0321232	-0.216617	0.0137728	-0.337181	-0.283114	0.123135	2.01888	1.90027	0.018341	-0.00793094	-0.937867	-0.293303	-0.0397303	1.89484	2.13588	0.0669041	-0.0375241
1.99167	-0.147789	0.199575	0.0360608	0.959625	1.00704	-0.350751	-0.288895	-0.113295	-0.0332061	-0.28416	-0.294032	-0.0319619	-0.00910766	0.869193	0.265994	0.0441304	-0.996771	0.215325	-0.0238156	-0.0487118	-0.0247675	-0.213736	0.026302	-0.354366	-0.284387	0.11984	2.04368	1.90151	0.018341	-0.00793094	-0.947391	-0.303491	-0.0382461	1.90815	2.1407	0.0669041	-0.0375241
